<svg xmlns="http://www.w3.org/2000/svg" id="action-build-32" width="32" height="32" viewBox="0 0 32 32" style=""><g fill="none" fill-rule="evenodd" class="symbols"><g fill="#282D37" class="build"><path d="M21 2a9 9 0 0 0-9 9c0 1.075.202 2.018.429 2.75L1.619 24.549a1 1 0 0 0 .017 1.432l4.508 4.29a.999.999 0 0 0 1.416 0l10.696-10.699c.866.285 1.78.428 2.744.428a9 9 0 0 0 9-9c0-1.175-.244-2.52-.713-3.498-.273-.572-1.103-.695-1.58-.22l-3.722 3.721-2.997-2.996 3.72-3.717a1 1 0 0 0-.33-1.635A8.977 8.977 0 0 0 21 2Zm1.084 2.084L18.867 7.3a1 1 0 0 0 0 1.414l4.378 4.382c.432.458 1.087.39 1.447.03l3.221-3.221A7 7 0 0 1 21 18c-.918 0-1.578-.123-2.713-.538a.986.986 0 0 0-.996.249L6.835 28.167l-3.077-2.929 10.534-10.522a1 1 0 0 0 .22-1.083 7 7 0 0 1 7.572-9.549Z" class="color" style="fill: rgb(40, 45, 55);"></path></g></g></svg>