<svg xmlns="http://www.w3.org/2000/svg" id="maps-home-32" width="32" height="32" viewBox="0 0 32 32"><g fill="none" fill-rule="evenodd" class="symbols"><g fill="#282D37" class="home"><path d="M16 4c.688 0 1.437.22 1.969.75l10.75 11.719a.94.94 0 0 1 .21.333c.047.126.071.26.071.386 0 .562-.469 1-1 1-.219 0-.5-.094-.625-.22L26 16.595V28c0 .516-.375 1-.875 1H19c-.5 0-.969-.375-.969-.875V22H14v6c0 .516-.406 1-.906 1H7c-.5 0-1-.375-1-.875V16.594l-1.281 1.281a.998.998 0 0 1-.719.313c-.25 0-.531-.125-.719-.313A.97.97 0 0 1 3 17.187c0-.218.063-.468.219-.625L13.875 4.876A2.949 2.949 0 0 1 16 4Zm0 2c-.219 0-.469.063-.625.219L8 14.594V27h4v-6c0-.531.375-1 .875-1H19c.531 0 1 .375 1 .875V27h4V14.594L16.719 6.28A1.041 1.041 0 0 0 16 6Z" class="color"></path></g></g></svg>